<mxfile host="app.diagrams.net" agent="Mozilla/5.0 (X11; Linux x86_64; rv:135.0) Gecko/20100101 Firefox/135.0" version="26.0.14">
  <diagram id="C5RBs43oDa-KdzZeNtuy" name="Page-1">
    <mxGraphModel dx="1434" dy="833" grid="1" gridSize="10" guides="1" tooltips="1" connect="1" arrows="1" fold="1" page="1" pageScale="1" pageWidth="827" pageHeight="1169" math="0" shadow="0">
      <root>
        <mxCell id="WIyWlLk6GJQsqaUBKTNV-0" />
        <mxCell id="WIyWlLk6GJQsqaUBKTNV-1" parent="WIyWlLk6GJQsqaUBKTNV-0" />
        <mxCell id="aPU1IR1Gpf8o0duNfGmr-35" value="&lt;div&gt;iop:hasProperty&lt;/div&gt;" style="edgeStyle=orthogonalEdgeStyle;rounded=0;orthogonalLoop=1;jettySize=auto;html=1;exitX=0;exitY=1;exitDx=0;exitDy=0;" parent="WIyWlLk6GJQsqaUBKTNV-1" source="aPU1IR1Gpf8o0duNfGmr-0" target="aPU1IR1Gpf8o0duNfGmr-23" edge="1">
          <mxGeometry relative="1" as="geometry" />
        </mxCell>
        <mxCell id="aPU1IR1Gpf8o0duNfGmr-37" value="iop:hasConstraint" style="edgeStyle=orthogonalEdgeStyle;rounded=0;orthogonalLoop=1;jettySize=auto;html=1;exitX=0.75;exitY=1;exitDx=0;exitDy=0;" parent="WIyWlLk6GJQsqaUBKTNV-1" source="aPU1IR1Gpf8o0duNfGmr-0" target="aPU1IR1Gpf8o0duNfGmr-25" edge="1">
          <mxGeometry relative="1" as="geometry" />
        </mxCell>
        <mxCell id="aPU1IR1Gpf8o0duNfGmr-38" value="iop:hasContextObject" style="edgeStyle=orthogonalEdgeStyle;rounded=0;orthogonalLoop=1;jettySize=auto;html=1;exitX=1;exitY=0.5;exitDx=0;exitDy=0;" parent="WIyWlLk6GJQsqaUBKTNV-1" source="aPU1IR1Gpf8o0duNfGmr-0" target="aPU1IR1Gpf8o0duNfGmr-26" edge="1">
          <mxGeometry relative="1" as="geometry" />
        </mxCell>
        <mxCell id="aPU1IR1Gpf8o0duNfGmr-40" value="iop:hasObjectOfInterest" style="edgeStyle=orthogonalEdgeStyle;rounded=0;orthogonalLoop=1;jettySize=auto;html=1;exitX=0.5;exitY=1;exitDx=0;exitDy=0;entryX=1;entryY=0.5;entryDx=0;entryDy=0;" parent="WIyWlLk6GJQsqaUBKTNV-1" source="aPU1IR1Gpf8o0duNfGmr-0" target="aPU1IR1Gpf8o0duNfGmr-24" edge="1">
          <mxGeometry relative="1" as="geometry" />
        </mxCell>
        <mxCell id="aPU1IR1Gpf8o0duNfGmr-42" value="iop:hasContextObject" style="edgeStyle=orthogonalEdgeStyle;rounded=0;orthogonalLoop=1;jettySize=auto;html=1;exitX=1;exitY=0.5;exitDx=0;exitDy=0;" parent="WIyWlLk6GJQsqaUBKTNV-1" source="aPU1IR1Gpf8o0duNfGmr-0" target="aPU1IR1Gpf8o0duNfGmr-43" edge="1">
          <mxGeometry relative="1" as="geometry" />
        </mxCell>
        <mxCell id="aPU1IR1Gpf8o0duNfGmr-0" value="iop:Variable" style="rounded=1;whiteSpace=wrap;html=1;fillColor=#d5e8d4;strokeColor=#82b366;" parent="WIyWlLk6GJQsqaUBKTNV-1" vertex="1">
          <mxGeometry x="315" y="190" width="90" height="30" as="geometry" />
        </mxCell>
        <mxCell id="aPU1IR1Gpf8o0duNfGmr-4" value="&lt;div&gt;iop:hasMember&lt;/div&gt;" style="edgeStyle=orthogonalEdgeStyle;rounded=0;orthogonalLoop=1;jettySize=auto;html=1;exitX=1;exitY=0.5;exitDx=0;exitDy=0;" parent="WIyWlLk6GJQsqaUBKTNV-1" source="aPU1IR1Gpf8o0duNfGmr-1" target="aPU1IR1Gpf8o0duNfGmr-0" edge="1">
          <mxGeometry relative="1" as="geometry" />
        </mxCell>
        <mxCell id="aPU1IR1Gpf8o0duNfGmr-1" value="iop:VariableSet" style="rounded=1;whiteSpace=wrap;html=1;fillColor=#d5e8d4;strokeColor=#82b366;" parent="WIyWlLk6GJQsqaUBKTNV-1" vertex="1">
          <mxGeometry x="10" y="190" width="100" height="30" as="geometry" />
        </mxCell>
        <mxCell id="aPU1IR1Gpf8o0duNfGmr-27" style="edgeStyle=orthogonalEdgeStyle;rounded=0;orthogonalLoop=1;jettySize=auto;html=1;strokeColor=#b85450;endArrow=diamondThin;endFill=0;dashed=1;dashPattern=1 2;startFill=0;fillColor=#f8cecc;" parent="WIyWlLk6GJQsqaUBKTNV-1" source="xkLKJ3BAfodWPbka8ZL5-9" target="aPU1IR1Gpf8o0duNfGmr-23" edge="1">
          <mxGeometry relative="1" as="geometry">
            <mxPoint x="90" y="500" as="sourcePoint" />
          </mxGeometry>
        </mxCell>
        <mxCell id="aPU1IR1Gpf8o0duNfGmr-28" style="edgeStyle=orthogonalEdgeStyle;rounded=0;orthogonalLoop=1;jettySize=auto;html=1;exitX=0.5;exitY=0;exitDx=0;exitDy=0;strokeColor=#b85450;endArrow=diamondThin;endFill=0;dashed=1;dashPattern=1 2;startFill=0;fillColor=#f8cecc;" parent="WIyWlLk6GJQsqaUBKTNV-1" source="xkLKJ3BAfodWPbka8ZL5-10" target="aPU1IR1Gpf8o0duNfGmr-24" edge="1">
          <mxGeometry relative="1" as="geometry">
            <mxPoint x="280" y="500" as="sourcePoint" />
          </mxGeometry>
        </mxCell>
        <mxCell id="aPU1IR1Gpf8o0duNfGmr-29" style="edgeStyle=orthogonalEdgeStyle;rounded=0;orthogonalLoop=1;jettySize=auto;html=1;strokeColor=#b85450;endArrow=diamondThin;endFill=0;dashed=1;dashPattern=1 2;startFill=0;fillColor=#f8cecc;exitX=0.5;exitY=0;exitDx=0;exitDy=0;" parent="WIyWlLk6GJQsqaUBKTNV-1" source="xkLKJ3BAfodWPbka8ZL5-11" target="aPU1IR1Gpf8o0duNfGmr-25" edge="1">
          <mxGeometry relative="1" as="geometry">
            <mxPoint x="459.0999999999999" y="500" as="sourcePoint" />
          </mxGeometry>
        </mxCell>
        <mxCell id="aPU1IR1Gpf8o0duNfGmr-30" style="edgeStyle=orthogonalEdgeStyle;rounded=0;orthogonalLoop=1;jettySize=auto;html=1;exitX=0.5;exitY=0;exitDx=0;exitDy=0;strokeColor=#b85450;endArrow=diamondThin;endFill=0;dashed=1;dashPattern=1 2;startFill=0;fillColor=#f8cecc;" parent="WIyWlLk6GJQsqaUBKTNV-1" source="xkLKJ3BAfodWPbka8ZL5-12" target="aPU1IR1Gpf8o0duNfGmr-26" edge="1">
          <mxGeometry relative="1" as="geometry">
            <mxPoint x="595" y="515" as="sourcePoint" />
          </mxGeometry>
        </mxCell>
        <mxCell id="xkLKJ3BAfodWPbka8ZL5-7" style="edgeStyle=orthogonalEdgeStyle;rounded=0;orthogonalLoop=1;jettySize=auto;html=1;fillColor=#f8cecc;strokeColor=#b85450;dashed=1;dashPattern=1 2;endArrow=diamondThin;startFill=0;exitX=0.5;exitY=1;exitDx=0;exitDy=0;endFill=0;" edge="1" parent="WIyWlLk6GJQsqaUBKTNV-1" source="xkLKJ3BAfodWPbka8ZL5-12" target="xkLKJ3BAfodWPbka8ZL5-5">
          <mxGeometry relative="1" as="geometry">
            <mxPoint x="590" y="530" as="sourcePoint" />
          </mxGeometry>
        </mxCell>
        <mxCell id="aPU1IR1Gpf8o0duNfGmr-18" style="edgeStyle=orthogonalEdgeStyle;rounded=0;orthogonalLoop=1;jettySize=auto;html=1;endArrow=diamondThin;endFill=0;strokeColor=#b85450;dashed=1;dashPattern=1 2;startFill=0;fillColor=#f8cecc;" parent="WIyWlLk6GJQsqaUBKTNV-1" source="aPU1IR1Gpf8o0duNfGmr-14" target="aPU1IR1Gpf8o0duNfGmr-0" edge="1">
          <mxGeometry relative="1" as="geometry" />
        </mxCell>
        <mxCell id="xkLKJ3BAfodWPbka8ZL5-4" style="edgeStyle=orthogonalEdgeStyle;rounded=0;orthogonalLoop=1;jettySize=auto;html=1;exitX=0.5;exitY=0;exitDx=0;exitDy=0;fillColor=#f8cecc;strokeColor=#b85450;dashed=1;dashPattern=1 2;endArrow=diamondThin;startFill=0;endFill=0;" edge="1" parent="WIyWlLk6GJQsqaUBKTNV-1" source="aPU1IR1Gpf8o0duNfGmr-14" target="xkLKJ3BAfodWPbka8ZL5-1">
          <mxGeometry relative="1" as="geometry">
            <Array as="points">
              <mxPoint x="360" y="90" />
              <mxPoint x="810" y="90" />
              <mxPoint x="810" y="715" />
            </Array>
          </mxGeometry>
        </mxCell>
        <mxCell id="aPU1IR1Gpf8o0duNfGmr-14" value="&quot;Thallus height of lab-sampled plant P1 in AFF001-plotA" style="shape=hexagon;perimeter=hexagonPerimeter2;whiteSpace=wrap;html=1;fixedSize=1;" parent="WIyWlLk6GJQsqaUBKTNV-1" vertex="1">
          <mxGeometry x="135" y="110" width="450" height="30" as="geometry" />
        </mxCell>
        <mxCell id="aPU1IR1Gpf8o0duNfGmr-23" value="iop:Property" style="rounded=1;whiteSpace=wrap;html=1;fillColor=#d5e8d4;strokeColor=#82b366;" parent="WIyWlLk6GJQsqaUBKTNV-1" vertex="1">
          <mxGeometry x="50" y="430" width="90" height="30" as="geometry" />
        </mxCell>
        <mxCell id="aPU1IR1Gpf8o0duNfGmr-24" value="iop:Entity" style="rounded=1;whiteSpace=wrap;html=1;fillColor=#d5e8d4;strokeColor=#82b366;" parent="WIyWlLk6GJQsqaUBKTNV-1" vertex="1">
          <mxGeometry x="235" y="430" width="90" height="30" as="geometry" />
        </mxCell>
        <mxCell id="xkLKJ3BAfodWPbka8ZL5-0" value="iop:constrains" style="edgeStyle=orthogonalEdgeStyle;rounded=0;orthogonalLoop=1;jettySize=auto;html=1;exitX=0;exitY=1;exitDx=0;exitDy=0;entryX=0.75;entryY=1;entryDx=0;entryDy=0;" edge="1" parent="WIyWlLk6GJQsqaUBKTNV-1" source="aPU1IR1Gpf8o0duNfGmr-25" target="aPU1IR1Gpf8o0duNfGmr-24">
          <mxGeometry relative="1" as="geometry" />
        </mxCell>
        <mxCell id="aPU1IR1Gpf8o0duNfGmr-25" value="iop:Constraint" style="rounded=1;whiteSpace=wrap;html=1;fillColor=#d5e8d4;strokeColor=#82b366;" parent="WIyWlLk6GJQsqaUBKTNV-1" vertex="1">
          <mxGeometry x="414" y="430" width="90" height="30" as="geometry" />
        </mxCell>
        <mxCell id="aPU1IR1Gpf8o0duNfGmr-26" value="iop:Entity" style="rounded=1;whiteSpace=wrap;html=1;fillColor=#d5e8d4;strokeColor=#82b366;" parent="WIyWlLk6GJQsqaUBKTNV-1" vertex="1">
          <mxGeometry x="550" y="430" width="90" height="30" as="geometry" />
        </mxCell>
        <mxCell id="xkLKJ3BAfodWPbka8ZL5-8" style="edgeStyle=orthogonalEdgeStyle;rounded=0;orthogonalLoop=1;jettySize=auto;html=1;exitX=0.5;exitY=1;exitDx=0;exitDy=0;fillColor=#f8cecc;strokeColor=#b85450;dashed=1;dashPattern=1 2;endArrow=diamondThin;startFill=0;endFill=0;" edge="1" parent="WIyWlLk6GJQsqaUBKTNV-1" source="xkLKJ3BAfodWPbka8ZL5-13" target="xkLKJ3BAfodWPbka8ZL5-6">
          <mxGeometry relative="1" as="geometry">
            <mxPoint x="720" y="530" as="sourcePoint" />
          </mxGeometry>
        </mxCell>
        <mxCell id="aPU1IR1Gpf8o0duNfGmr-43" value="iop:Entity" style="rounded=1;whiteSpace=wrap;html=1;fillColor=#d5e8d4;strokeColor=#82b366;" parent="WIyWlLk6GJQsqaUBKTNV-1" vertex="1">
          <mxGeometry x="675" y="430" width="90" height="30" as="geometry" />
        </mxCell>
        <mxCell id="xkLKJ3BAfodWPbka8ZL5-1" value="sosa:ObservableProperty" style="rounded=1;whiteSpace=wrap;html=1;fillColor=#dae8fc;strokeColor=#6c8ebf;" vertex="1" parent="WIyWlLk6GJQsqaUBKTNV-1">
          <mxGeometry x="530" y="710" width="145" height="30" as="geometry" />
        </mxCell>
        <mxCell id="xkLKJ3BAfodWPbka8ZL5-2" style="edgeStyle=orthogonalEdgeStyle;rounded=0;orthogonalLoop=1;jettySize=auto;html=1;exitX=0.5;exitY=1;exitDx=0;exitDy=0;" edge="1" parent="WIyWlLk6GJQsqaUBKTNV-1" source="xkLKJ3BAfodWPbka8ZL5-1" target="xkLKJ3BAfodWPbka8ZL5-1">
          <mxGeometry relative="1" as="geometry" />
        </mxCell>
        <mxCell id="xkLKJ3BAfodWPbka8ZL5-5" value="sosa:FoI" style="rounded=1;whiteSpace=wrap;html=1;fillColor=#dae8fc;strokeColor=#6c8ebf;" vertex="1" parent="WIyWlLk6GJQsqaUBKTNV-1">
          <mxGeometry x="557.5" y="610" width="75" height="30" as="geometry" />
        </mxCell>
        <mxCell id="xkLKJ3BAfodWPbka8ZL5-6" value="sosa:FoI" style="rounded=1;whiteSpace=wrap;html=1;fillColor=#dae8fc;strokeColor=#6c8ebf;" vertex="1" parent="WIyWlLk6GJQsqaUBKTNV-1">
          <mxGeometry x="682.5" y="610" width="75" height="30" as="geometry" />
        </mxCell>
        <mxCell id="xkLKJ3BAfodWPbka8ZL5-9" value="&lt;div&gt;&quot;Thallus height&quot;&lt;/div&gt;" style="ellipse;whiteSpace=wrap;html=1;fillColor=#fff2cc;strokeColor=#d6b656;" vertex="1" parent="WIyWlLk6GJQsqaUBKTNV-1">
          <mxGeometry x="35" y="520" width="120" height="35" as="geometry" />
        </mxCell>
        <mxCell id="xkLKJ3BAfodWPbka8ZL5-17" style="edgeStyle=orthogonalEdgeStyle;rounded=0;orthogonalLoop=1;jettySize=auto;html=1;exitX=0.5;exitY=1;exitDx=0;exitDy=0;entryX=0.5;entryY=0;entryDx=0;entryDy=0;dashed=1;dashPattern=1 2;strokeColor=#b85450;endArrow=diamondThin;endFill=0;fillColor=#f8cecc;" edge="1" parent="WIyWlLk6GJQsqaUBKTNV-1" source="xkLKJ3BAfodWPbka8ZL5-10" target="xkLKJ3BAfodWPbka8ZL5-15">
          <mxGeometry relative="1" as="geometry" />
        </mxCell>
        <mxCell id="xkLKJ3BAfodWPbka8ZL5-10" value="&quot;sampled Plant P1&quot;" style="ellipse;whiteSpace=wrap;html=1;fillColor=#fff2cc;strokeColor=#d6b656;" vertex="1" parent="WIyWlLk6GJQsqaUBKTNV-1">
          <mxGeometry x="220" y="520" width="120" height="35" as="geometry" />
        </mxCell>
        <mxCell id="xkLKJ3BAfodWPbka8ZL5-11" value="&lt;div&gt;&quot;lab&quot;&lt;/div&gt;" style="ellipse;whiteSpace=wrap;html=1;fillColor=#fff2cc;strokeColor=#d6b656;" vertex="1" parent="WIyWlLk6GJQsqaUBKTNV-1">
          <mxGeometry x="399" y="520" width="120" height="35" as="geometry" />
        </mxCell>
        <mxCell id="xkLKJ3BAfodWPbka8ZL5-12" value="&quot;Plot A&quot;" style="ellipse;whiteSpace=wrap;html=1;fillColor=#fff2cc;strokeColor=#d6b656;" vertex="1" parent="WIyWlLk6GJQsqaUBKTNV-1">
          <mxGeometry x="535" y="520" width="120" height="40" as="geometry" />
        </mxCell>
        <mxCell id="xkLKJ3BAfodWPbka8ZL5-14" style="edgeStyle=orthogonalEdgeStyle;rounded=0;orthogonalLoop=1;jettySize=auto;html=1;exitX=0.5;exitY=0;exitDx=0;exitDy=0;endArrow=diamondThin;endFill=0;fillColor=#f8cecc;strokeColor=#b85450;dashed=1;dashPattern=1 2;" edge="1" parent="WIyWlLk6GJQsqaUBKTNV-1" source="xkLKJ3BAfodWPbka8ZL5-13" target="aPU1IR1Gpf8o0duNfGmr-43">
          <mxGeometry relative="1" as="geometry" />
        </mxCell>
        <mxCell id="xkLKJ3BAfodWPbka8ZL5-13" value="&quot;AF001&quot;" style="ellipse;whiteSpace=wrap;html=1;fillColor=#fff2cc;strokeColor=#d6b656;" vertex="1" parent="WIyWlLk6GJQsqaUBKTNV-1">
          <mxGeometry x="660" y="520" width="120" height="40" as="geometry" />
        </mxCell>
        <mxCell id="xkLKJ3BAfodWPbka8ZL5-15" value="sosa:Sample" style="rounded=1;whiteSpace=wrap;html=1;fillColor=#dae8fc;strokeColor=#6c8ebf;" vertex="1" parent="WIyWlLk6GJQsqaUBKTNV-1">
          <mxGeometry x="235" y="610" width="90" height="30" as="geometry" />
        </mxCell>
      </root>
    </mxGraphModel>
  </diagram>
</mxfile>
